<svg width="375" height="812" viewBox="0 0 375 812" fill="none" xmlns="http://www.w3.org/2000/svg">
  <!-- Background -->
  <rect width="375" height="812" fill="#F5F7FA"/>
  
  <!-- Status Bar (Placeholder) -->
  <rect width="375" height="44" fill="#E3350D"/>
  <path d="M335 18C335 15.3333 336.333 14 339 14H354C356.667 14 358 15.3333 358 18V26C358 28.6667 356.667 30 354 30H339C336.333 30 335 28.6667 335 26V18Z" stroke="white"/>
  
  <!-- Nav Bar -->
  <rect y="44" width="375" height="44" fill="#E3350D"/>
  <text x="187.5" y="73" fill="white" font-family="PingFang SC, sans-serif" font-weight="600" font-size="18" text-anchor="middle">宝可梦图鉴</text>
  
  <!-- Search & Filter Area -->
  <rect y="88" width="375" height="60" fill="#E3350D" />
  <rect x="16" y="96" width="295" height="36" rx="18" fill="white"/>
  <text x="50" y="119" fill="#999" font-family="PingFang SC, sans-serif" font-size="14">搜索宝可梦名称/编号</text>
  <circle cx="35" cy="114" r="6" stroke="#999" stroke-width="2"/>
  <line x1="39" y1="118" x2="42" y2="121" stroke="#999" stroke-width="2"/>
  
  <!-- Filter Button -->
  <rect x="327" y="96" width="36" height="36" rx="8" fill="rgba(255,255,255,0.2)"/>
  <path d="M337 108H353M340 114H350M343 120H347" stroke="white" stroke-width="2" stroke-linecap="round"/>

  <!-- Content Grid -->
  <!-- Card 1: Bulbasaur -->
  <rect x="16" y="164" width="165" height="220" rx="12" fill="white" filter="drop-shadow(0px 4px 10px rgba(0,0,0,0.05))"/>
  <rect x="16" y="164" width="165" height="140" rx="12" fill="#F8F8F8" fill-opacity="0.5"/> <!-- Img Placeholder -->
  <!-- Bulbasaur SVG Icon Placeholder -->
  <circle cx="98.5" cy="234" r="40" fill="#7AC74C" fill-opacity="0.2"/>
  <text x="32" y="325" fill="#999" font-family="sans-serif" font-size="12">#0001</text>
  <!-- V1.1 Badge: Grass+Poison (only showing Grass for simplified view or first type) -->
  <rect x="135" y="313" width="24" height="16" rx="4" fill="#7AC74C"/>
  <text x="147" y="325" fill="white" font-family="PingFang SC" font-weight="600" font-size="10" text-anchor="middle">草</text>
  <text x="98.5" y="355" fill="#333" font-family="PingFang SC" font-weight="500" font-size="16" text-anchor="middle">妙蛙种子</text>

  <!-- Card 2: Charmander -->
  <rect x="194" y="164" width="165" height="220" rx="12" fill="white" filter="drop-shadow(0px 4px 10px rgba(0,0,0,0.05))"/>
  <rect x="194" y="164" width="165" height="140" rx="12" fill="#F8F8F8" fill-opacity="0.5"/>
  <circle cx="276.5" cy="234" r="40" fill="#EE8130" fill-opacity="0.2"/>
  <text x="210" y="325" fill="#999" font-family="sans-serif" font-size="12">#0004</text>
  <!-- V1.1 Badge: Fire -->
  <rect x="313" y="313" width="24" height="16" rx="4" fill="#EE8130"/>
  <text x="325" y="325" fill="white" font-family="PingFang SC" font-weight="600" font-size="10" text-anchor="middle">火</text>
  <text x="276.5" y="355" fill="#333" font-family="PingFang SC" font-weight="500" font-size="16" text-anchor="middle">小火龙</text>

  <!-- Card 3: Squirtle -->
  <rect x="16" y="400" width="165" height="220" rx="12" fill="white" filter="drop-shadow(0px 4px 10px rgba(0,0,0,0.05))"/>
  <rect x="16" y="400" width="165" height="140" rx="12" fill="#F8F8F8" fill-opacity="0.5"/>
  <circle cx="98.5" cy="470" r="40" fill="#6390F0" fill-opacity="0.2"/>
  <text x="32" y="561" fill="#999" font-family="sans-serif" font-size="12">#0007</text>
  <!-- V1.1 Badge: Water -->
  <rect x="135" y="549" width="24" height="16" rx="4" fill="#6390F0"/>
  <text x="147" y="561" fill="white" font-family="PingFang SC" font-weight="600" font-size="10" text-anchor="middle">水</text>
  <text x="98.5" y="591" fill="#333" font-family="PingFang SC" font-weight="500" font-size="16" text-anchor="middle">杰尼龟</text>

  <!-- Card 4: Pikachu -->
  <rect x="194" y="400" width="165" height="220" rx="12" fill="white" filter="drop-shadow(0px 4px 10px rgba(0,0,0,0.05))"/>
  <rect x="194" y="400" width="165" height="140" rx="12" fill="#F8F8F8" fill-opacity="0.5"/>
  <circle cx="276.5" cy="470" r="40" fill="#F7D02C" fill-opacity="0.2"/>
  <text x="210" y="561" fill="#999" font-family="sans-serif" font-size="12">#0025</text>
  <!-- V1.1 Badge: Electric -->
  <rect x="313" y="549" width="24" height="16" rx="4" fill="#F7D02C"/>
  <text x="325" y="561" fill="white" font-family="PingFang SC" font-weight="600" font-size="10" text-anchor="middle">电</text>
  <text x="276.5" y="591" fill="#333" font-family="PingFang SC" font-weight="500" font-size="16" text-anchor="middle">皮卡丘</text>

  <!-- TabBar -->
  <rect y="730" width="375" height="82" fill="white" filter="drop-shadow(0px -2px 10px rgba(0,0,0,0.05))"/>
  <!-- Home Tab -->
  <circle cx="93.75" cy="755" r="3" fill="#E3350D"/>
  <path d="M83.75 765C83.75 759.477 88.227 755 93.75 755C99.273 755 103.75 759.477 103.75 765" stroke="#E3350D" stroke-width="2"/>
  <path d="M83.75 765C83.75 770.523 88.227 775 93.75 775C99.273 775 103.75 770.523 103.75 765" stroke="#E3350D" stroke-width="2"/>
  <text x="93.75" y="792" fill="#E3350D" font-family="PingFang SC" font-size="10" text-anchor="middle">图鉴</text>
  <!-- Me Tab -->
  <circle cx="281.25" cy="765" r="10" stroke="#999" stroke-width="2"/>
  <path d="M271.25 785C271.25 775 275 770 281.25 770C287.5 770 291.25 775 291.25 785" stroke="#999" stroke-width="2"/>
  <text x="281.25" y="792" fill="#999" font-family="PingFang SC" font-size="10" text-anchor="middle">我的</text>

</svg>
